#!OML:ASF E:\CV Data\Top Level 1\Subject 1\Session 1\player.ASF
:FULLY-SPECIFIED
:DEGREES
590
root 5.47468 17.9019 -20.2762 3.38263 23.249 -5.77009
lowerback 2.10352 2.27952 5.05278
upperback -4.86107 3.50089 2.71608
thorax -6.11888 1.57879 -0.248817
lowerneck 1.33297 -12.9715 -17.6939
upperneck -19.0444 -16.0764 18.554
head -2.70826 -7.927 8.66774
rclavicle -5.59082e-014 -2.10712e-014
rhumerus 61.6806 -1.61306 -46.2532
rradius 39.9099
rwrist 9.58506
rhand 2.2958 -6.59421
rfingers 7.12502
rthumb 27.7875 -34.5601
lclavicle -5.59082e-014 -2.10712e-014
lhumerus 61.4979 -5.55652 51.1268
lradius 73.8701
lwrist 26.8427
lhand -23.8433 19.5481
lfingers 7.12502
lthumb 2.62868 49.5117
rfemur -6.21766 -3.05018 26.3225
rtibia 19.9028
rfoot -15.6482 -20.6822
rtoes 2.96219
lfemur -12.6859 -1.14364 -14.0321
ltibia 21.0378
lfoot -10.6602 -6.07636
ltoes 2.99123
591
root 5.47628 17.9032 -20.286 3.33048 23.2894 -5.79059
lowerback 2.10337 2.24642 5.05568
upperback -4.7975 3.45438 2.74823
thorax -6.05483 1.55849 -0.212787
lowerneck 1.38879 -12.9368 -17.6785
upperneck -19.0451 -16.0445 18.5036
head -2.73032 -7.91162 8.65792
rclavicle 3.43401e-014 4.37326e-015
rhumerus 59.9275 -0.836828 -45.3727
rradius 42.4887
rwrist 8.29314
rhand 0.586955 -5.98751
rfingers 7.12502
rthumb 26.1525 -34.2063
lclavicle 3.43401e-014 4.37326e-015
lhumerus 59.7677 -5.8651 51.2206
lradius 75.6696
lwrist 26.1672
lhand -23.5676 18.8796
lfingers 7.12502
lthumb 2.89493 48.8397
rfemur -6.18178 -3.07077 26.325
rtibia 19.8646
rfoot -15.6016 -20.7022
rtoes 2.96242
lfemur -12.6535 -1.14529 -14.0253
ltibia 20.9933
lfoot -10.6151 -6.16139
ltoes 3.14297
592
root 5.47843 17.9045 -20.2954 3.28615 23.2741 -5.79853
lowerback 2.06127 2.23509 5.02651
upperback -4.71542 3.43107 2.78303
thorax -5.94787 1.55239 -0.155741
lowerneck 1.47396 -12.9007 -17.6498
upperneck -19.0788 -16.0112 18.4639
head -2.76685 -7.89766 8.65412
rclavicle -7.42958e-015 -2.3059e-014
rhumerus 58.1304 -0.0408063 -44.619
rradius 45.09
rwrist 7.12689
rhand -1.18653 -5.3717
rfingers 7.12502
rthumb 24.4534 -33.8309
lclavicle -7.42958e-015 -2.3059e-014
lhumerus 57.9637 -6.23004 51.3376
lradius 77.5066
lwrist 25.4802
lhand -23.3679 18.2223
lfingers 7.12502
lthumb 3.08782 48.1797
rfemur -6.14935 -3.05349 26.313
rtibia 19.8293
rfoot -15.5482 -20.7151
rtoes 2.95529
lfemur -12.6 -1.14769 -14.0341
ltibia 20.932
lfoot -10.5627 -6.18952
ltoes 3.26812
593
root 5.48111 17.9059 -20.3042 3.25561 23.2044 -5.79574
lowerback 1.9868 2.24764 4.9785
upperback -4.62657 3.4355 2.81134
thorax -5.81473 1.5613 -0.0953528
lowerneck 1.58328 -12.8694 -17.6048
upperneck -19.1249 -15.9851 18.4364
head -2.80949 -7.8898 8.65379
rclavicle 3.00662e-014 -9.14409e-015
rhumerus 56.2708 0.775306 -43.9928
rradius 47.702
rwrist 6.04174
rhand -2.99567 -4.73626
rfingers 7.12502
rthumb 22.7181 -33.4188
lclavicle 3.00662e-014 -9.14409e-015
lhumerus 56.0826 -6.67086 51.4772
lradius 79.3619
lwrist 24.7553
lhand -23.2214 17.5713
lfingers 7.12502
lthumb 3.22926 47.5266
rfemur -6.1302 -2.99333 26.289
rtibia 19.8011
rfoot -15.4895 -20.7247
rtoes 2.943
lfemur -12.5347 -1.15173 -14.0568
ltibia 20.855
lfoot -10.5022 -6.15695
ltoes 3.3463
594
root 5.48434 17.9075 -20.3126 3.24102 23.0861 -5.77907
lowerback 1.89185 2.28419 4.91731
upperback -4.53772 3.46924 2.82759
thorax -5.66893 1.58515 -0.0411015
lowerneck 1.70388 -12.8457 -17.5552
upperneck -19.1592 -15.9699 18.4282
head -2.84673 -7.8895 8.65774
rclavicle 1.13804e-014 -1.19271e-014
rhumerus 54.3406 1.61757 -43.4728
rradius 50.3003
rwrist 4.99041
rhand -4.8137 -4.06568
rfingers 7.12502
rthumb 20.9724 -32.9518
lclavicle 1.13804e-014 -1.19271e-014
lhumerus 54.1216 -7.19646 51.6466
lradius 81.2188
lwrist 23.9817
lhand -23.1011 16.9112
lfingers 7.12502
lthumb 3.34546 46.8647
rfemur -6.12705 -2.89805 26.2497
rtibia 19.7834
rfoot -15.425 -20.7284
rtoes 2.91994
lfemur -12.4614 -1.15749 -14.0962
ltibia 20.765
lfoot -10.4346 -6.06955
ltoes 3.40452
595
root 5.48818 17.9092 -20.3206 3.24588 22.9283 -5.75129
lowerback 1.8142 2.33794 4.86678
upperback -4.47267 3.52813 2.81982
thorax -5.55558 1.61932 -0.0201738
lowerneck 1.80853 -12.8312 -17.499
upperneck -19.133 -15.9672 18.4305
head -2.86066 -7.89701 8.65742
rclavicle 2.16178e-015 -9.93923e-015
rhumerus 52.3256 2.51036 -43.075
rradius 52.867
rwrist 3.95109
rhand -6.62233 -3.32959
rfingers 7.12502
rthumb 19.234 -32.3985
lclavicle 2.16178e-015 -9.93923e-015
lhumerus 52.0609 -7.82267 51.834
lradius 83.0563
lwrist 23.1539
lhand -23.0071 16.2218
lfingers 7.12502
lthumb 3.43621 46.1739
rfemur -6.14552 -2.77619 26.1974
rtibia 19.7773
rfoot -15.3599 -20.7233
rtoes 2.89189
lfemur -12.3875 -1.16604 -14.1485
ltibia 20.6652
lfoot -10.3622 -5.9371
ltoes 3.45485
596
root 5.49242 17.9109 -20.3277 3.26108 22.7527 -5.71699
lowerback 1.751 2.4007 4.82394
upperback -4.42509 3.60091 2.79721
thorax -5.46734 1.65892 -0.0204404
lowerneck 1.89171 -12.8229 -17.4446
upperneck -19.0536 -15.9728 18.4376
head -2.85333 -7.90891 8.65277
rclavicle 1.04113e-013 3.22031e-014
rhumerus 50.243 3.46062 -42.7757
rradius 55.3751
rwrist 2.92018
rhand -8.37293 -2.53579
rfingers 7.12502
rthumb 17.55 -31.7637
lclavicle 1.04113e-013 3.22031e-014
lhumerus 49.902 -8.53648 52.0544
lradius 84.8581
lwrist 22.2897
lhand -22.9383 15.5093
lfingers 7.12502
lthumb 3.50267 45.4602
rfemur -6.17442 -2.63965 26.1387
rtibia 19.7809
rfoot -15.2977 -20.7172
rtoes 2.85836
lfemur -12.3134 -1.16774 -14.2086
ltibia 20.5612
lfoot -10.2934 -5.78778
ltoes 3.48132
597
root 5.49684 17.9124 -20.3338 3.28011 22.5862 -5.67843
lowerback 1.71765 2.44102 4.78059
upperback -4.38374 3.64679 2.78286
thorax -5.40437 1.68475 -0.0116452
lowerneck 1.859 -12.8125 -17.4305
upperneck -18.8791 -15.9656 18.4464
head -2.79791 -7.90938 8.6396
rclavicle -2.84759e-014 -9.93923e-015
rhumerus 48.1676 4.50978 -42.5746
rradius 57.8104
rwrist 1.91231
rhand -10.0457 -1.71073
rfingers 7.12502
rthumb 15.9396 -31.0748
lclavicle -2.84759e-014 -9.93923e-015
lhumerus 47.6184 -9.26744 52.3106
lradius 86.6034
lwrist 21.4104
lhand -22.8994 14.7741
lfingers 7.12502
lthumb 3.5402 44.7245
rfemur -6.20377 -2.50686 26.0776
rtibia 19.7904
rfoot -15.2453 -20.7162
rtoes 2.82159
lfemur -12.2408 -1.16499 -14.2718
ltibia 20.4596
lfoot -10.2339 -5.64957
ltoes 3.51025
598
root 5.50138 17.9135 -20.3386 3.29769 22.4438 -5.64513
lowerback 1.69891 2.44934 4.73451
upperback -4.33596 3.65158 2.78898
thorax -5.34592 1.69075 0.0217222
lowerneck 1.69927 -12.795 -17.4545
upperneck -18.6285 -15.936 18.451
head -2.70086 -7.89245 8.61723
rclavicle 1.05107e-014 -2.06736e-014
rhumerus 46.1288 5.65744 -42.4694
rradius 60.1533
rwrist 0.960149
rhand -11.6203 -0.869507
rfingers 7.12502
rthumb 14.4229 -30.3484
lclavicle 1.05107e-014 -2.06736e-014
lhumerus 45.2152 -9.99103 52.6174
lradius 88.2748
lwrist 20.5278
lhand -22.8843 14.0191
lfingers 7.12502
lthumb 3.55485 43.9692
rfemur -6.22747 -2.38403 26.025
rtibia 19.8006
rfoot -15.2047 -20.7254
rtoes 2.7854
lfemur -12.1751 -1.15014 -14.3275
ltibia 20.3678
lfoot -10.1901 -5.54434
ltoes 3.53091
599
root 5.50603 17.9143 -20.3422 3.31068 22.3353 -5.62031
lowerback 1.6697 2.40219 4.66254
upperback -4.24153 3.58037 2.85109
thorax -5.2398 1.66281 0.133054
lowerneck 1.29706 -12.7719 -17.5516
upperneck -18.2833 -15.8702 18.4466
head -2.53835 -7.84476 8.58053
rclavicle -4.92737e-014 9.14409e-015
rhumerus 44.2313 6.90687 -42.4445
rradius 62.3965
rwrist 0.0960844
rhand -13.0708 -0.0468556
rfingers 7.12502
rthumb 13.025 -29.6202
lclavicle -4.92737e-014 9.14409e-015
lhumerus 42.6948 -10.6055 53.0001
lradius 89.857
lwrist 19.6541
lhand -22.89 13.2588
lfingers 7.12502
lthumb 3.54934 43.209
rfemur -6.24152 -2.28223 25.9837
rtibia 19.8081
rfoot -15.1772 -20.7407
rtoes 2.7565
lfemur -12.1189 -1.12881 -14.3708
ltibia 20.2923
lfoot -10.1619 -5.48028
ltoes 3.57992
600
root 5.51098 17.9149 -20.3448 3.32122 22.2539 -5.60678
lowerback 1.58994 2.31195 4.55806
upperback -4.08488 3.44578 2.97246
thorax -5.04631 1.60815 0.330396
lowerneck 0.699946 -12.745 -17.7231
upperneck -17.891 -15.7716 18.4512
head -2.32982 -7.76987 8.54299
rclavicle -5.29513e-014 -9.54166e-015
rhumerus 42.4689 8.22333 -42.4862
rradius 64.5205
rwrist -0.660172
rhand -14.3944 0.759733
rfingers 7.12502
rthumb 11.7488 -28.8908
lclavicle -5.29513e-014 -9.54166e-015
lhumerus 40.0898 -11.1094 53.4865
lradius 91.3342
lwrist 18.7768
lhand -22.8901 12.4984
lfingers 7.12502
lthumb 3.54927 42.4486
rfemur -6.25035 -2.20371 25.9543
rtibia 19.8109
rfoot -15.1583 -20.7531
rtoes 2.72658
lfemur -12.0791 -1.10524 -14.4012
ltibia 20.2376
lfoot -10.1468 -5.44489
ltoes 3.62586
601
root 5.51657 17.9152 -20.3473 3.33363 22.1751 -5.60766
lowerback 1.47339 2.22618 4.46376
upperback -3.9051 3.31348 3.09131
thorax -4.80615 1.5546 0.520735
lowerneck 0.059692 -12.7315 -17.8596
upperneck -17.4999 -15.6797 18.4578
head -2.11682 -7.69821 8.49902
rclavicle -8.80119e-014 -3.53837e-014
rhumerus 40.6725 9.536 -42.6591
rradius 66.5173
rwrist -1.2779
rhand -15.5877 1.57983
rfingers 7.12502
rthumb 10.5979 -28.1329
lclavicle -8.80119e-014 -3.53837e-014
lhumerus 37.4538 -11.6523 54.0462
lradius 92.6952
lwrist 17.915
lhand -22.901 11.7537
lfingers 7.12502
lthumb 3.5387 41.7041
rfemur -6.26464 -2.14674 25.9348
rtibia 19.8089
rfoot -15.138 -20.7401
rtoes 2.6927
lfemur -12.0602 -1.07726 -14.4189
ltibia 20.2037
lfoot -10.1371 -5.41578
ltoes 3.64768
602
root 5.52284 17.9154 -20.3498 3.3438 22.0969 -5.61916
lowerback 1.35128 2.16051 4.39877
upperback -3.74274 3.20834 3.17671
thorax -4.5767 1.51176 0.658086
lowerneck -0.48394 -12.7237 -17.9266
upperneck -17.145 -15.6053 18.4688
head -1.93239 -7.64213 8.45604
rclavicle 1.19333e-013 1.43125e-014
rhumerus 38.7312 10.8437 -43.0041
rradius 68.3754
rwrist -1.75903
rhand -16.6209 2.37253
rfingers 7.12502
rthumb 9.60113 -27.3887
lclavicle 1.19333e-013 1.43125e-014
lhumerus 34.7673 -12.3147 54.6748
lradius 93.9339
lwrist 17.0763
lhand -22.8869 11.0412
lfingers 7.12502
lthumb 3.55233 40.9914
rfemur -6.27923 -2.10963 25.9208
rtibia 19.8019
rfoot -15.1134 -20.7038
rtoes 2.648
lfemur -12.0546 -1.04779 -14.428
ltibia 20.1889
lfoot -10.1328 -5.38985
ltoes 3.66206
603
root 5.52969 17.9154 -20.3521 3.3534 22.023 -5.63667
lowerback 1.25024 2.12597 4.37703
upperback -3.63444 3.14847 3.20151
thorax -4.40929 1.48679 0.704462
lowerneck -0.839386 -12.7189 -17.8893
upperneck -16.8349 -15.5611 18.477
head -1.7945 -7.61314 8.41209
rclavicle 1.50207e-014 4.77083e-015
rhumerus 36.5564 12.1419 -43.5704
rradius 70.0811
rwrist -2.12495
rhand -17.5169 3.1654
rfingers 7.12502
rthumb 8.73655 -26.6338
lclavicle 1.50207e-014 4.77083e-015
lhumerus 32.0103 -13.1624 55.3746
lradius 95.0351
lwrist 16.2504
lhand -22.8372 10.3643
lfingers 7.12502
lthumb 3.60028 40.3137
rfemur -6.29349 -2.09328 25.9089
rtibia 19.7914
rfoot -15.0898 -20.6471
rtoes 2.60381
lfemur -12.0591 -1.02567 -14.4324
ltibia 20.1884
lfoot -10.1305 -5.36401
ltoes 3.6723
